HIERARCHY
ROOT Hips
{
	OFFSET 0.000000 97.167313 0.000000
	CHANNELS 6 Xposition Yposition Zposition Xrotation Yrotation Zrotation
	JOINT Spine
	{
		OFFSET 0.000000 13.784798 0.064400
		CHANNELS 3 Xrotation Yrotation Zrotation
		JOINT Spine1
		{
			OFFSET 0.000000 12.037903 0.404700
			CHANNELS 3 Xrotation Yrotation Zrotation
			JOINT Spine2
			{
				OFFSET 0.000000 17.795601 0.420200
				CHANNELS 3 Xrotation Yrotation Zrotation
				JOINT Neck
				{
					OFFSET 0.000000 39.131302 11.954600
					CHANNELS 3 Xrotation Yrotation Zrotation
					JOINT Head
					{
						OFFSET 0.000000 14.456192 15.627699
						CHANNELS 3 Xrotation Yrotation Zrotation
						JOINT HeadTop_End
						{
							OFFSET 0.000000 15.703506 7.603401
							CHANNELS 3 Xrotation Yrotation Zrotation
							End Site
							{
								OFFSET 0.000000 17.447403 0.000000
							}
						}
					}
				}
				JOINT LeftShoulder
				{
					OFFSET 17.399500 24.608795 1.168800
					CHANNELS 3 Xrotation Yrotation Zrotation
					JOINT LeftArm
					{
						OFFSET 18.980635 5.765305 1.818600
						CHANNELS 3 Xrotation Yrotation Zrotation
						JOINT LeftForeArm
						{
							OFFSET 49.290169 0.000000 0.000000
							CHANNELS 3 Xrotation Yrotation Zrotation
							JOINT LeftHand
							{
								OFFSET 31.562012 0.000000 0.000000
								CHANNELS 3 Xrotation Yrotation Zrotation
								JOINT LeftHandThumb1
								{
									OFFSET 6.133995 -4.388519 7.076070
									CHANNELS 3 Xrotation Yrotation Zrotation
									JOINT LeftHandThumb2
									{
										OFFSET 6.037666 -3.485840 3.485847
										CHANNELS 3 Xrotation Yrotation Zrotation
										JOINT LeftHandThumb3
										{
											OFFSET 6.496506 -3.750763 3.750761
											CHANNELS 3 Xrotation Yrotation Zrotation
											JOINT LeftHandThumb4
											{
												OFFSET 5.616882 -3.242905 3.242910
												CHANNELS 3 Xrotation Yrotation Zrotation
												End Site
												{
													OFFSET -1.254608 7.132141 0.375429
												}
											}
										}
									}
								}
								JOINT LeftHandPinky1
								{
									OFFSET 18.920792 -0.453171 -11.426712
									CHANNELS 3 Xrotation Yrotation Zrotation
									JOINT LeftHandPinky2
									{
										OFFSET 4.919586 0.000000 0.000000
										CHANNELS 3 Xrotation Yrotation Zrotation
										JOINT LeftHandPinky3
										{
											OFFSET 5.233047 0.000000 0.000000
											CHANNELS 3 Xrotation Yrotation Zrotation
											JOINT LeftHandPinky4
											{
												OFFSET 5.571716 0.000000 0.000000
												CHANNELS 3 Xrotation Yrotation Zrotation
												End Site
												{
													OFFSET -3.459808 4.342407 -0.466164
												}
											}
										}
									}
								}
								JOINT LeftHandRing1
								{
									OFFSET 22.726120 -0.094986 -6.500475
									CHANNELS 3 Xrotation Yrotation Zrotation
									JOINT LeftHandRing2
									{
										OFFSET 6.408615 0.000000 0.000000
										CHANNELS 3 Xrotation Yrotation Zrotation
										JOINT LeftHandRing3
										{
											OFFSET 6.150223 0.000000 0.000000
											CHANNELS 3 Xrotation Yrotation Zrotation
											JOINT LeftHandRing4
											{
												OFFSET 6.145386 0.000000 0.000000
												CHANNELS 3 Xrotation Yrotation Zrotation
												End Site
												{
													OFFSET -3.671402 4.923981 -0.202372
												}
											}
										}
									}
								}
								JOINT LeftHandMiddle1
								{
									OFFSET 23.373947 0.000000 0.000001
									CHANNELS 3 Xrotation Yrotation Zrotation
									JOINT LeftHandMiddle2
									{
										OFFSET 6.996567 0.000000 0.000000
										CHANNELS 3 Xrotation Yrotation Zrotation
										JOINT LeftHandMiddle3
										{
											OFFSET 7.015945 0.000000 0.000000
											CHANNELS 3 Xrotation Yrotation Zrotation
											JOINT LeftHandMiddle4
											{
												OFFSET 7.721573 0.000000 0.000000
												CHANNELS 3 Xrotation Yrotation Zrotation
												End Site
												{
													OFFSET -4.651108 6.158463 0.251582
												}
											}
										}
									}
								}
								JOINT LeftHandIndex1
								{
									OFFSET 21.310577 -0.490082 6.209344
									CHANNELS 3 Xrotation Yrotation Zrotation
									JOINT LeftHandIndex2
									{
										OFFSET 7.536453 0.000000 0.000000
										CHANNELS 3 Xrotation Yrotation Zrotation
										JOINT LeftHandIndex3
										{
											OFFSET 7.512344 0.000000 0.000000
											CHANNELS 3 Xrotation Yrotation Zrotation
											JOINT LeftHandIndex4
											{
												OFFSET 10.212402 0.000000 0.000001
												CHANNELS 3 Xrotation Yrotation Zrotation
												End Site
												{
													OFFSET -5.180801 8.690506 1.388433
												}
											}
										}
									}
								}
							}
						}
					}
				}
				JOINT RightShoulder
				{
					OFFSET -17.399500 24.608795 1.168800
					CHANNELS 3 Xrotation Yrotation Zrotation
					JOINT RightArm
					{
						OFFSET -18.980635 5.765305 1.818600
						CHANNELS 3 Xrotation Yrotation Zrotation
						JOINT RightForeArm
						{
							OFFSET -49.290169 0.000000 0.000000
							CHANNELS 3 Xrotation Yrotation Zrotation
							JOINT RightHand
							{
								OFFSET -31.562012 0.000000 0.000000
								CHANNELS 3 Xrotation Yrotation Zrotation
								JOINT RightHandThumb1
								{
									OFFSET -6.133995 -4.388519 7.076070
									CHANNELS 3 Xrotation Yrotation Zrotation
									JOINT RightHandThumb2
									{
										OFFSET -6.037666 -3.485840 3.485847
										CHANNELS 3 Xrotation Yrotation Zrotation
										JOINT RightHandThumb3
										{
											OFFSET -6.496506 -3.750763 3.750761
											CHANNELS 3 Xrotation Yrotation Zrotation
											JOINT RightHandThumb4
											{
												OFFSET -5.616882 -3.242905 3.242910
												CHANNELS 3 Xrotation Yrotation Zrotation
												End Site
												{
													OFFSET 1.254608 7.132141 0.375429
												}
											}
										}
									}
								}
								JOINT RightHandIndex1
								{
									OFFSET -21.310577 -0.490082 6.209344
									CHANNELS 3 Xrotation Yrotation Zrotation
									JOINT RightHandIndex2
									{
										OFFSET -7.536453 0.000000 0.000000
										CHANNELS 3 Xrotation Yrotation Zrotation
										JOINT RightHandIndex3
										{
											OFFSET -7.512344 0.000000 0.000000
											CHANNELS 3 Xrotation Yrotation Zrotation
											JOINT RightHandIndex4
											{
												OFFSET -10.212402 0.000000 0.000001
												CHANNELS 3 Xrotation Yrotation Zrotation
												End Site
												{
													OFFSET 5.180801 8.690506 1.388433
												}
											}
										}
									}
								}
								JOINT RightHandMiddle1
								{
									OFFSET -23.373947 0.000000 0.000001
									CHANNELS 3 Xrotation Yrotation Zrotation
									JOINT RightHandMiddle2
									{
										OFFSET -6.996567 0.000000 0.000000
										CHANNELS 3 Xrotation Yrotation Zrotation
										JOINT RightHandMiddle3
										{
											OFFSET -7.015945 0.000000 0.000000
											CHANNELS 3 Xrotation Yrotation Zrotation
											JOINT RightHandMiddle4
											{
												OFFSET -7.721573 0.000000 0.000000
												CHANNELS 3 Xrotation Yrotation Zrotation
												End Site
												{
													OFFSET 4.651108 6.158463 0.251582
												}
											}
										}
									}
								}
								JOINT RightHandRing1
								{
									OFFSET -22.726120 -0.094986 -6.500475
									CHANNELS 3 Xrotation Yrotation Zrotation
									JOINT RightHandRing2
									{
										OFFSET -6.408615 0.000000 0.000000
										CHANNELS 3 Xrotation Yrotation Zrotation
										JOINT RightHandRing3
										{
											OFFSET -6.150223 0.000000 0.000000
											CHANNELS 3 Xrotation Yrotation Zrotation
											JOINT RightHandRing4
											{
												OFFSET -6.145386 0.000000 0.000000
												CHANNELS 3 Xrotation Yrotation Zrotation
												End Site
												{
													OFFSET 3.671402 4.923981 -0.202372
												}
											}
										}
									}
								}
								JOINT RightHandPinky1
								{
									OFFSET -18.920792 -0.453171 -11.426712
									CHANNELS 3 Xrotation Yrotation Zrotation
									JOINT RightHandPinky2
									{
										OFFSET -4.919586 0.000000 0.000000
										CHANNELS 3 Xrotation Yrotation Zrotation
										JOINT RightHandPinky3
										{
											OFFSET -5.233047 0.000000 0.000000
											CHANNELS 3 Xrotation Yrotation Zrotation
											JOINT RightHandPinky4
											{
												OFFSET -5.571716 0.000000 0.000000
												CHANNELS 3 Xrotation Yrotation Zrotation
												End Site
												{
													OFFSET 3.459808 4.342407 -0.466164
												}
											}
										}
									}
								}
							}
						}
					}
				}
			}
		}
	}
	JOINT LeftUpLeg
	{
		OFFSET 19.899099 -7.885101 -3.429500
		CHANNELS 3 Xrotation Yrotation Zrotation
		JOINT LeftLeg
		{
			OFFSET 1.745560 -36.997807 10.304700
			CHANNELS 3 Xrotation Yrotation Zrotation
			JOINT LeftFoot
			{
				OFFSET -1.745558 -29.803308 -13.615400
				CHANNELS 3 Xrotation Yrotation Zrotation
				JOINT LeftToeBase
				{
					OFFSET 1.181900 -18.539904 15.226099
					CHANNELS 3 Xrotation Yrotation Zrotation
					JOINT LeftToe_End
					{
						OFFSET -0.863701 1.402801 16.534700
						CHANNELS 3 Xrotation Yrotation Zrotation
						End Site
						{
							OFFSET 0.000000 16.616566 0.000000
						}
					}
				}
			}
		}
	}
	JOINT RightUpLeg
	{
		OFFSET -19.899099 -7.885101 -3.429500
		CHANNELS 3 Xrotation Yrotation Zrotation
		JOINT RightLeg
		{
			OFFSET -1.745560 -36.997807 10.304700
			CHANNELS 3 Xrotation Yrotation Zrotation
			JOINT RightFoot
			{
				OFFSET 1.745558 -29.803308 -13.615400
				CHANNELS 3 Xrotation Yrotation Zrotation
				JOINT RightToeBase
				{
					OFFSET -1.181900 -18.539904 15.226099
					CHANNELS 3 Xrotation Yrotation Zrotation
					JOINT RightToe_End
					{
						OFFSET 0.863701 1.402801 16.534700
						CHANNELS 3 Xrotation Yrotation Zrotation
						End Site
						{
							OFFSET 0.000000 16.616566 0.000000
						}
					}
				}
			}
		}
	}
}
MOTION
Frames: 4
Frame Time: 0.033333
5.374327 64.050507 5.114197 55.794279 57.572566 -35.228282 16.267858 -5.848706 -6.038109 -4.632341 0.370028 -4.199518 1.345077 -0.417083 -4.362844 -14.339625 -10.148422 1.461780 0.963491 -47.318321 18.589393 -0.000000 -0.000000 -0.000000 8.614160 13.154686 -8.749793 51.731084 -32.828826 -20.122207 0.000015 -39.421222 0.000016 -25.956432 -35.528059 12.944656 -16.063860 -0.644380 -1.721621 4.401086 20.298392 -9.586104 -17.892493 -22.034636 5.837297 0.000001 0.000001 -0.000002 1.152601 25.023757 -17.568606 2.223993 4.594298 -51.642890 1.265328 3.637892 -38.346905 0.000001 -0.000000 -0.000004 4.540190 16.352484 -18.454864 2.291155 4.646481 -52.476316 1.265517 3.638117 -38.349811 -0.000004 0.000001 0.000003 -0.505248 -0.552169 -9.697515 0.204931 1.537467 -15.183782 0.025208 0.543370 -5.310142 0.000001 0.000000 0.000006 2.184453 -10.355518 2.710306 0.195065 1.500676 -14.811755 0.025229 0.543680 -5.313050 -0.000003 0.000003 0.000002 3.914336 12.862764 5.376847 -58.540834 -9.020787 25.230459 0.000007 46.637577 0.000005 34.880321 6.207185 -50.013165 -13.883089 -3.695124 13.911960 7.375325 -23.020772 -2.783696 -3.459257 -24.954465 -18.671227 -0.000000 0.000001 -0.000004 0.078019 -1.754114 -6.493638 0.027743 -0.508188 6.250794 0.018226 -0.412073 5.065114 -0.000001 -0.000003 -0.000001 0.068861 -2.722103 5.410665 0.028370 -0.513860 6.320902 0.011460 -0.326871 4.015639 0.000001 -0.000000 -0.000002 3.283482 -10.155139 25.110496 0.330884 -1.725708 21.706269 0.456530 -2.012768 25.557031 -0.000001 0.000001 -0.000001 10.235413 -21.028424 34.973256 0.938143 -2.805188 36.976674 2.300837 -4.018212 59.577684 0.000002 0.000004 0.000005 -48.301513 15.971246 1.283132 69.491458 1.109950 -1.654951 -38.354408 26.221863 -9.226742 -3.066346 -0.000007 0.000001 0.000000 0.000002 0.000000 -73.213453 26.160489 -52.725724 30.086990 1.085987 1.800237 48.885511 -20.344982 37.878057 -3.636797 -0.000001 0.000001 -0.000000 0.000001 0.000000 
5.355658 63.920471 5.006893 55.844074 57.553687 -35.227790 16.270537 -5.887327 -6.029460 -4.626191 0.366178 -4.197790 1.351160 -0.420405 -4.360823 -14.404002 -10.139684 1.440491 0.890428 -47.306324 18.554342 -0.000001 0.000001 0.000000 8.631554 13.137775 -8.800660 51.742699 -32.806293 -20.026623 0.000014 -39.472199 0.000001 -25.992481 -35.536221 12.990316 -16.063862 -0.644380 -1.721619 4.401084 20.298392 -9.586105 -17.892498 -22.034641 5.837294 -0.000003 -0.000000 -0.000001 1.152598 25.023756 -17.568606 2.223996 4.594293 -51.642890 1.265330 3.637892 -38.346915 0.000000 -0.000002 -0.000001 4.540183 16.352485 -18.454864 2.291154 4.646480 -52.476316 1.265516 3.638122 -38.349811 -0.000001 0.000001 0.000002 -0.505254 -0.552168 -9.697514 0.204926 1.537468 -15.183777 0.025202 0.543371 -5.310146 -0.000003 -0.000002 0.000004 2.184448 -10.355519 2.710308 0.195061 1.500669 -14.811757 0.025225 0.543676 -5.313053 -0.000001 0.000001 0.000003 3.920091 12.829448 5.364328 -58.571119 -8.999043 25.241994 0.000017 46.650359 -0.000005 34.838722 6.242256 -49.999795 -13.883085 -3.695128 13.911961 7.375330 -23.020779 -2.783696 -3.459256 -24.954465 -18.671225 -0.000001 -0.000003 0.000002 0.078022 -1.754113 -6.493639 0.027743 -0.508186 6.250793 0.018226 -0.412076 5.065113 -0.000000 -0.000002 0.000003 0.068866 -2.722102 5.410663 0.028369 -0.513864 6.320904 0.011463 -0.326871 4.015635 -0.000002 0.000000 -0.000004 3.283484 -10.155136 25.110494 0.330885 -1.725709 21.706271 0.456532 -2.012771 25.557029 0.000001 0.000001 -0.000003 10.235420 -21.028423 34.973256 0.938139 -2.805183 36.976674 2.300834 -4.018209 59.577684 -0.000000 0.000001 0.000004 -48.450664 16.088915 1.205031 69.750896 1.104279 -1.665304 -38.567152 26.184507 -9.065739 -3.056281 -0.000018 -0.000000 0.000000 0.000001 0.000000 -73.324430 26.259762 -52.845228 30.001876 1.089376 1.818219 49.062775 -20.206567 37.890276 -3.653151 0.000009 0.000003 0.000000 0.000001 0.000000 
5.335077 63.788963 4.895584 55.920415 57.536195 -35.242789 16.270168 -5.927601 -6.017205 -4.623946 0.358481 -4.197714 1.353160 -0.427330 -4.360349 -14.460303 -10.132263 1.415771 0.808616 -47.311040 18.510321 0.000001 0.000000 -0.000000 8.648459 13.120563 -8.850144 51.758422 -32.797875 -19.951379 0.000010 -39.510524 -0.000018 -26.002476 -35.531228 13.020833 -16.063854 -0.644379 -1.721617 4.401078 20.298395 -9.586101 -17.892497 -22.034643 5.837299 0.000002 0.000002 0.000001 1.152602 25.023756 -17.568602 2.223995 4.594297 -51.642893 1.265324 3.637890 -38.346909 0.000001 -0.000005 -0.000003 4.540189 16.352484 -18.454855 2.291153 4.646479 -52.476316 1.265512 3.638119 -38.349818 -0.000003 -0.000001 0.000005 -0.505249 -0.552166 -9.697509 0.204930 1.537469 -15.183780 0.025200 0.543369 -5.310140 0.000001 0.000000 0.000004 2.184455 -10.355518 2.710306 0.195059 1.500673 -14.811759 0.025233 0.543673 -5.313048 -0.000000 0.000002 -0.000003 3.927097 12.797164 5.337821 -58.606547 -8.977231 25.247089 0.000041 46.678216 -0.000031 34.832558 6.257798 -50.008712 -13.883086 -3.695126 13.911956 7.375329 -23.020774 -2.783694 -3.459259 -24.954467 -18.671225 0.000001 0.000000 -0.000003 0.078021 -1.754110 -6.493636 0.027740 -0.508186 6.250794 0.018229 -0.412071 5.065110 -0.000001 0.000001 -0.000001 0.068863 -2.722100 5.410660 0.028367 -0.513860 6.320898 0.011461 -0.326872 4.015641 0.000002 0.000000 -0.000002 3.283482 -10.155138 25.110489 0.330886 -1.725711 21.706269 0.456529 -2.012770 25.557029 0.000003 0.000001 -0.000005 10.235418 -21.028423 34.973256 0.938142 -2.805184 36.976674 2.300837 -4.018210 59.577684 -0.000000 0.000000 -0.000003 -48.620213 16.188487 1.093138 70.013073 1.114069 -1.671066 -38.770930 26.165094 -8.886768 -3.043203 -0.000057 0.000000 0.000000 -0.000000 -0.000000 -73.445379 26.378300 -52.955737 29.946555 1.115328 1.822865 49.254748 -20.117777 37.939276 -3.652258 -0.000007 0.000003 0.000000 0.000001 0.000000 
5.309708 63.655304 4.780117 55.997012 57.522501 -35.247458 16.273050 -5.974547 -6.003189 -4.619376 0.348280 -4.199942 1.357394 -0.436969 -4.361997 -14.506125 -10.121463 1.386077 0.728530 -47.311153 18.453872 0.000001 -0.000000 -0.000000 8.665366 13.103480 -8.899660 51.774907 -32.802489 -19.898247 0.000011 -39.519990 0.000016 -25.991781 -35.529654 13.027109 -16.063862 -0.644378 -1.721615 4.401081 20.298397 -9.586100 -17.892498 -22.034639 5.837294 -0.000001 0.000001 -0.000001 1.152594 25.023757 -17.568607 2.224004 4.594299 -51.642890 1.265329 3.637894 -38.346909 -0.000000 -0.000003 0.000001 4.540181 16.352489 -18.454864 2.291159 4.646480 -52.476316 1.265514 3.638116 -38.349815 -0.000000 -0.000001 -0.000002 -0.505259 -0.552164 -9.697514 0.204934 1.537469 -15.183782 0.025206 0.543371 -5.310143 0.000001 0.000001 0.000004 2.184448 -10.355520 2.710304 0.195057 1.500671 -14.811757 0.025225 0.543675 -5.313048 -0.000001 0.000002 -0.000003 3.932631 12.781818 5.302730 -58.668395 -8.945695 25.253766 0.000012 46.708378 0.000005 34.845013 6.247081 -50.054594 -13.883090 -3.695123 13.911960 7.375330 -23.020772 -2.783701 -3.459259 -24.954467 -18.671225 -0.000001 -0.000001 0.000001 0.078020 -1.754107 -6.493636 0.027742 -0.508184 6.250792 0.018226 -0.412077 5.065112 -0.000001 -0.000001 -0.000001 0.068863 -2.722100 5.410658 0.028369 -0.513861 6.320898 0.011463 -0.326872 4.015641 -0.000002 -0.000002 -0.000004 3.283481 -10.155137 25.110496 0.330884 -1.725710 21.706268 0.456527 -2.012772 25.557029 0.000001 0.000002 -0.000001 10.235416 -21.028418 34.973260 0.938141 -2.805184 36.976677 2.300840 -4.018207 59.577684 0.000001 0.000001 0.000002 -48.784893 16.293497 0.964031 70.268023 1.123168 -1.675641 -38.977376 26.152624 -8.702925 -3.022391 -0.000013 0.000005 0.000000 0.000002 0.000000 -73.578916 26.512445 -53.060161 29.908381 1.135334 1.820594 49.442804 -20.040014 37.965279 -3.640017 0.000002 -0.000009 -0.000000 0.000000 0.000000 
